<?xml version="1.0" encoding="utf-8"?>
<!-- Generator: Adobe Illustrator 18.0.0, SVG Export Plug-In . SVG Version: 6.00 Build 0)  -->
<!DOCTYPE svg PUBLIC "-//W3C//DTD SVG 1.1//EN" "http://www.w3.org/Graphics/SVG/1.1/DTD/svg11.dtd">
<svg version="1.1" id="Layer_1" xmlns="http://www.w3.org/2000/svg" xmlns:xlink="http://www.w3.org/1999/xlink" x="0px" y="0px"
	 viewBox="0 200 560 560" enable-background="new 0 200 560 560" xml:space="preserve">
<g>
	<path fill="#E74C3C" d="M280,200C125.3,200,0,325.3,0,480s125.3,280,280,280s280-125.3,280-280C559.2,325.3,433.8,200,280,200z
		 M280,735.6C139.2,735.6,24.4,620.8,24.4,480S139.2,224.4,280,224.4S535.6,339.2,535.6,480C534.8,620.8,420.8,735.6,280,735.6z"/>
	<polygon fill="#E74C3C" points="377.7,366 280,462.9 181.5,366 161.2,386.4 258.8,483.3 161.2,579.3 181.5,600.5 280,503.6 
		377.7,600.5 398,579.3 300.3,483.3 398,386.4 	"/>
</g>
</svg>
